<svg width="38" height="30" viewBox="0 0 38 30" fill="none" xmlns="http://www.w3.org/2000/svg">
<g filter="url(#filter0_d_200_43)">
<path d="M12.2929 0C12.2169 0 12.1346 -9.81944e-08 12.0587 0.00642889C9.91264 0.0578608 7.27917 0.694331 4 2.173V17.8212C7.84891 15.9696 10.7546 15.436 13.1285 15.6932C13.9958 15.7832 14.7934 15.9825 15.5278 16.2461L12.6727 11.18C12.1283 11.405 11.5396 11.5336 10.9192 11.5336C8.37371 11.5336 6.29795 9.4249 6.29795 6.84044C6.29795 4.25599 8.37371 2.14728 10.9192 2.14728C13.464 2.14728 15.5404 4.25599 15.5404 6.84044C15.5404 8.3834 14.7997 9.75278 13.6603 10.6143L17.2876 17.0433C17.6801 17.249 18.0536 17.474 18.4208 17.699V2.07656C16.9521 0.938633 15.2429 0.147867 12.9766 0.0192872C12.755 0.00642919 12.5271 0 12.2929 0ZM25.7134 0C25.4792 0 25.245 0.00642919 25.0234 0.0192872C22.7571 0.147867 21.0542 0.938633 19.5792 2.07656V17.699C21.0922 16.7604 22.7508 15.9182 24.8715 15.6932C27.2454 15.436 30.1574 15.9696 34 17.8212V2.173C30.7272 0.694331 28.0937 0.0578608 25.9477 0.00642889C25.8654 0.00642889 25.7894 0 25.7134 0ZM10.9192 3.3045C8.98966 3.3045 7.43743 4.8796 7.43743 6.84044C7.43743 8.80129 8.98966 10.3764 10.9192 10.3764C12.85 10.3764 14.4009 8.80129 14.4009 6.84044C14.4009 4.8796 12.85 3.3045 10.9192 3.3045ZM11.0648 4.19813H11.242C9.7164 5.36821 9.0403 6.90473 9.12956 8.71128C7.47985 6.21683 9.20996 4.24956 11.0648 4.19813ZM11.8941 16.8311C9.86833 16.8504 7.34881 17.4611 4 19.1455V21.8778C7.84891 20.0263 10.7546 19.4927 13.1285 19.7499C14.306 19.8784 15.3378 20.1935 16.2811 20.6049C15.9835 20.9971 15.6923 21.46 15.4011 22H18.7753L16.4963 17.969C15.4455 17.4354 14.325 17.0304 13.0082 16.889C12.6537 16.8504 12.2802 16.8311 11.8941 16.8311ZM25.878 16.8311C25.5742 16.8375 25.283 16.8568 24.9981 16.889C22.8457 17.1204 21.2252 18.0462 19.5792 19.1005V19.1198C19.1931 18.9977 18.8006 18.9719 18.4208 19.0427L20.0857 22H22.8204C22.4406 21.4728 22.0734 21.0099 21.6999 20.6113C22.6495 20.1935 23.6877 19.8784 24.8715 19.7499C27.2454 19.4927 30.1574 20.0263 34 21.8778V19.1455C30.6385 17.4547 28.1064 16.8375 26.0743 16.8311H25.878Z" fill="black"/>
<path d="M12.2929 0C12.2169 0 12.1346 -9.81944e-08 12.0587 0.00642889C9.91264 0.0578608 7.27917 0.694331 4 2.173V17.8212C7.84891 15.9696 10.7546 15.436 13.1285 15.6932C13.9958 15.7832 14.7934 15.9825 15.5278 16.2461L12.6727 11.18C12.1283 11.405 11.5396 11.5336 10.9192 11.5336C8.37371 11.5336 6.29795 9.4249 6.29795 6.84044C6.29795 4.25599 8.37371 2.14728 10.9192 2.14728C13.464 2.14728 15.5404 4.25599 15.5404 6.84044C15.5404 8.3834 14.7997 9.75278 13.6603 10.6143L17.2876 17.0433C17.6801 17.249 18.0536 17.474 18.4208 17.699V2.07656C16.9521 0.938633 15.2429 0.147867 12.9766 0.0192872C12.755 0.00642919 12.5271 0 12.2929 0ZM25.7134 0C25.4792 0 25.245 0.00642919 25.0234 0.0192872C22.7571 0.147867 21.0542 0.938633 19.5792 2.07656V17.699C21.0922 16.7604 22.7508 15.9182 24.8715 15.6932C27.2454 15.436 30.1574 15.9696 34 17.8212V2.173C30.7272 0.694331 28.0937 0.0578608 25.9477 0.00642889C25.8654 0.00642889 25.7894 0 25.7134 0ZM10.9192 3.3045C8.98966 3.3045 7.43743 4.8796 7.43743 6.84044C7.43743 8.80129 8.98966 10.3764 10.9192 10.3764C12.85 10.3764 14.4009 8.80129 14.4009 6.84044C14.4009 4.8796 12.85 3.3045 10.9192 3.3045ZM11.0648 4.19813H11.242C9.7164 5.36821 9.0403 6.90473 9.12956 8.71128C7.47985 6.21683 9.20996 4.24956 11.0648 4.19813ZM11.8941 16.8311C9.86833 16.8504 7.34881 17.4611 4 19.1455V21.8778C7.84891 20.0263 10.7546 19.4927 13.1285 19.7499C14.306 19.8784 15.3378 20.1935 16.2811 20.6049C15.9835 20.9971 15.6923 21.46 15.4011 22H18.7753L16.4963 17.969C15.4455 17.4354 14.325 17.0304 13.0082 16.889C12.6537 16.8504 12.2802 16.8311 11.8941 16.8311ZM25.878 16.8311C25.5742 16.8375 25.283 16.8568 24.9981 16.889C22.8457 17.1204 21.2252 18.0462 19.5792 19.1005V19.1198C19.1931 18.9977 18.8006 18.9719 18.4208 19.0427L20.0857 22H22.8204C22.4406 21.4728 22.0734 21.0099 21.6999 20.6113C22.6495 20.1935 23.6877 19.8784 24.8715 19.7499C27.2454 19.4927 30.1574 20.0263 34 21.8778V19.1455C30.6385 17.4547 28.1064 16.8375 26.0743 16.8311H25.878Z" stroke="black"/>
</g>
<defs>
<filter id="filter0_d_200_43" x="0" y="0" width="38" height="30" filterUnits="userSpaceOnUse" color-interpolation-filters="sRGB">
<feFlood flood-opacity="0" result="BackgroundImageFix"/>
<feColorMatrix in="SourceAlpha" type="matrix" values="0 0 0 0 0 0 0 0 0 0 0 0 0 0 0 0 0 0 127 0" result="hardAlpha"/>
<feOffset dy="4"/>
<feGaussianBlur stdDeviation="2"/>
<feComposite in2="hardAlpha" operator="out"/>
<feColorMatrix type="matrix" values="0 0 0 0 0 0 0 0 0 0 0 0 0 0 0 0 0 0 0.25 0"/>
<feBlend mode="normal" in2="BackgroundImageFix" result="effect1_dropShadow_200_43"/>
<feBlend mode="normal" in="SourceGraphic" in2="effect1_dropShadow_200_43" result="shape"/>
</filter>
</defs>
</svg>
