<svg width="20" height="22" viewBox="0 0 20 22" fill="none" xmlns="http://www.w3.org/2000/svg">
<path d="M19.2587 4.0549L10.4092 0.0977228C10.2666 0.0333064 10.112 0 9.95568 0C9.79933 0 9.64475 0.0333064 9.50215 0.0977228L0.65265 4.0549C0.460271 4.14178 0.29662 4.28211 0.180986 4.45936C0.065352 4.63661 0.00255597 4.84338 0 5.05531C0 7.68972 0.486723 17.0602 9.41365 21.8511C9.58181 21.9486 9.77257 22 9.96675 22C10.1609 22 10.3517 21.9486 10.5198 21.8511C19.3693 17.0713 20.0109 7.72307 19.9999 5.06642C19.9922 4.84239 19.9174 4.6259 19.7851 4.44538C19.6528 4.26486 19.4694 4.12874 19.2587 4.0549ZM14.3583 11.8359H11.0397V15.1706H8.82737V11.8359H5.50881V9.61273H8.82737V6.27803H11.0397V9.61273H14.3583V11.8359Z" fill="black"/>
</svg>
